<?xml version="1.0" encoding="utf-8"?>
<svg width="800px" height="600px"
     xmlns="http://www.w3.org/2000/svg"
     xmlns:xhtml="http://www.w3.org/1999/xhtml"
     xmlns:xlink="http://www.w3.org/1999/xlink"
     xmlns:a="http://www.adobe.com/svg10-extensions" a:timeline="independent"
     onload="top.load(evt)">

  <defs>
    <clipPath id="gameareaclip">
      <rect x="20" y="20" width="600" height="560"/>
    </clipPath>
    <pattern id="background_pattern" x="0" y="0" width="20" height="20" patternUnits="userSpaceOnUse">
      <rect width="20" height="20" style="fill:yellow"/>
      <circle cx="10" cy="10" r="8" style="fill:lightyellow"/>
    </pattern>
    <radialGradient id="player_color">
      <stop offset="0.0" style="stop-color:yellow;stop-opacity:1"/>
      <stop offset="0.8" style="stop-color:yellow;stop-opacity:1"/>
      <stop offset="1.0" style="stop-color:orange;stop-opacity:1"/>
    </radialGradient>
    <g id="monster">
            <defs>
        <radialGradient r="0.949076" cy="0.433594" cx="0.523438" spreadMethod="pad" id="svg_15">
         <stop offset="0" stop-color="#ff0000"/>
         <stop offset="1" stop-opacity="0.992188" stop-color="#aa00ff"/>
        </radialGradient>
        <radialGradient r="0.949076" cy="0.433594" cx="0.523438" spreadMethod="pad" id="svg_16">
         <stop offset="0" stop-color="#ff0000"/>
         <stop offset="1" stop-opacity="0.992188" stop-color="#aa00ff"/>
        </radialGradient>
        <radialGradient r="0.949076" cy="0.433594" cx="0.523438" spreadMethod="pad" id="svg_17">
         <stop offset="0" stop-color="#ff0000"/>
         <stop offset="1" stop-opacity="0.996094" stop-color="#3f007f"/>
        </radialGradient>
        <linearGradient spreadMethod="pad" id="svg_18">
         <stop offset="0" stop-color="#ff0000"/>
         <stop offset="1" stop-opacity="0.996094" stop-color="#3f007f"/>
        </linearGradient>
        <linearGradient y2="0" x2="1" y1="0" x1="0" spreadMethod="pad" id="svg_19">
         <stop stop-opacity="0.996094" offset="0" stop-color="#ff0000"/>
         <stop offset="1" stop-opacity="0.996094" stop-color="#5f00bf"/>
        </linearGradient>
       </defs>
       <g>
        <title>Layer 1</title>
        <path stroke="#000" id="svg_2" d="m3.065049,58.451313c-3.316725,0.555786 -3.380678,-3.827496 -0.402277,-3.967354c-0.892817,-1.880531 -0.20944,-4.187714 1.110052,-5.928192c1.892263,-2.907753 4.738187,-5.79818 4.150229,-9.43848c-0.203575,-1.893719 -2.784657,-5.289051 1.21678,-4.802849c1.081893,-1.888599 0.452668,-4.668991 1.264071,-6.838293c0.708533,-4.112228 2.285631,-8.499933 0.608144,-12.576831c-1.057721,-2.170086 -3.745374,-3.598569 -3.456882,-6.251596c-0.303786,-2.587076 -0.203229,-5.193777 0.128479,-7.773257c1.29156,0.098451 2.728822,-0.247064 3.906332,0.284839c-0.008858,2.504268 2.607469,1.949449 2.293702,-0.178473c0.688258,-0.247878 1.827679,-0.035781 2.689551,-0.106367c3.83222,0 7.664341,0 11.496466,0c-0.43837,1.451871 0.747999,3.32315 2.250298,1.613832c-0.411009,-2.270752 3.03019,-1.519321 2.205513,0.434096c0.048523,2.587873 0.397526,5.265496 -0.402046,7.785567c-1.302307,1.006257 -1.322876,2.986881 -2.954206,4.173544c-1.311066,2.225104 -0.733335,4.913871 -0.587475,7.330695c0.555193,3.576916 1.471985,7.109543 1.700518,10.7274c-0.163477,1.967041 4.290466,1.38813 2.369976,3.809288c-2.098825,1.62513 -0.870234,4.369602 -0.039066,6.310364c1.640381,3.354485 5.098206,6.367546 4.576283,10.301731c-0.413864,1.718533 3.010502,1.13755 2.12038,3.350845c-0.025887,2.727741 -4.48436,0.974266 -6.459373,1.54718c-9.927336,0.109539 -19.857823,0.278629 -29.785445,0.19231l0,0z" stroke-opacity="null" fill="url(#svg_19)"/>
        <path id="svg_8" d="m7.06259,34.875c6.12491,2.624901 -3.99997,-13.624901 -3.87497,-13.624901" opacity="0.5" fill-opacity="null" stroke-opacity="null" stroke-width="0" stroke="#000" fill="#ffffff"/>
        <path id="svg_9" d="m-16.062201,20.500099" opacity="0.5" fill-opacity="null" stroke-opacity="null" stroke-width="0" stroke="#000" fill="#ffffff"/>
        <g id="svg_13">
         <ellipse stroke="#000" ry="8.752723" rx="8.562446" id="svg_6" cy="18.002859" cx="13.125048" stroke-opacity="null" fill="#ffffff"/>
         <ellipse stroke="#0f0f00" ry="3.739919" rx="3.739919" id="svg_11" cy="17.714163" cx="8.893035" fill="#000000"/>
        </g>
        <path stroke="#000" transform="rotate(-143.032 16.6398 45.9491)" id="svg_14" d="m16.639799,36.6366c-5.143099,0 -9.312429,4.169201 -9.312429,9.3125c0,5.142799 4.16933,9.3125 9.312429,9.3125c5.143101,0 9.312401,-4.169701 9.312401,-9.3125c0,-5.143299 -4.1693,-9.3125 -9.312401,-9.3125zm-1.496099,15.543701l-2.2658,-2.267803l3.9642,-3.963997l-3.9642,-3.963902l2.2658,-2.265598l6.230501,6.2295l-6.230501,6.2318z" fill-opacity="null" stroke-opacity="null" fill="#ffffff"/>
       </g>
      
    </g>
    <g id="bullet">
      <circle cx="5" cy="5" r="5" style="fill:red"/>
      <circle cx="6" cy="3" r="1" style="fill:pink"/>
    </g>
  </defs>

  <rect width="100%" height="100%" style="fill:url(#background_pattern);stroke:orange;stroke-width:4" />

  <rect x="20" y="20" width="600" height="560" style="fill:black;stroke:red;stroke-width:5" />

  <g onclick="top.setZoom()" transform="translate(640, 20)">
    <rect x="0" y="0" width="140" height="40" style="fill:white;stroke:red;stroke-width:2" />
    <text x="70" y="28" style="fill:red;font-size:25px;text-anchor:middle">Zoom</text>
  </g>
  
<g transform="translate(640, 120)">
  <text x="70" y="0"
   style="fill:orange;font-size:25px;font-weight:bold;text-anchor:middle">
    Score:
  </text>
  <rect x="0" y="10" width="140" height="35" style="fill:white" />
  <text id="score" x="70" y="36"
   style="fill:orange;font-size:25px;text-anchor:middle">0</text>
</g>


  <g style="clip-path:url(#gameareaclip)">
    <g transform="translate(20,20)">
      <g id="gamearea" transform="translate(0,0)" width="600" height="560">
        <rect x="0" y="0" width="600" height="560" style="fill:white" />

        <g id="platforms">
            <!-- 60 -->
            <rect style="fill:orange" width="60" height="20" x="0" y="60"/>

            <!-- 80 -->
            <rect style="fill:orange" width="20" height="20" x="40" y="80"/>

            <!-- 100 -->
            <rect style="fill:orange" width="480" height="20" x="40" y="100"/>

            <!-- 120 -->
            <rect style="fill:orange" width="20" height="20" x="60" y="120"/>
            <rect style="fill:orange" width="40" height="20" x="220" y="120"/>

            <!-- 140 -->
            <rect style="fill:orange" width="40" height="20" x="220" y="140"/>
            <rect style="fill:orange" width="40" height="20" x="560" y="140"/>

            <!-- 160 -->
            <rect style="fill:orange" width="120" height="20" x="180" y="160"/>
            <rect style="fill:orange" width="60" height="20" x="540" y="160"/>

            <!-- 180 -->
            <rect style="fill:orange" width="20" height="20" x="0" y="180"/>
            <rect style="fill:orange" width="20" height="20" x="100" y="180"/>
            <rect style="fill:orange" width="20" height="20" x="380" y="180"/>
            <rect style="fill:orange" width="80" height="20" x="520" y="180"/>

            <!-- 200 -->
            <rect style="fill:orange" width="20" height="20" x="0" y="200"/>
            <rect style="fill:orange" width="40" height="20" x="80" y="200"/>
            <rect style="fill:orange" width="80" height="20" x="360" y="200"/>

            <!-- 220 -->
            <rect style="fill:orange" width="160" height="20" x="0" y="220"/>
            <rect style="fill:orange" width="140" height="20" x="320" y="220"/>

            <!-- 240 -->
            <rect style="fill:orange" width="20" height="20" x="240" y="240"/>
            <rect style="fill:orange" width="160" height="20" x="340" y="240"/>

            <!-- 260 -->
            <rect style="fill:orange" width="60" height="20" x="220" y="260"/>

            <!-- 280 -->
            <rect style="fill:orange" width="100" height="20" x="200" y="280"/>
            <rect style="fill:orange" width="40" height="20" x="560" y="280"/>

            <!-- 300 -->
            <rect style="fill:orange" width="100" height="20" x="120" y="300"/>
            <rect style="fill:orange" width="40" height="20" x="280" y="300"/>
            <rect style="fill:orange" width="100" height="20" x="500" y="300"/>

            <!-- 320 -->
            <rect style="fill:orange" width="40" height="20" x="0" y="320"/>
            <rect style="fill:orange" width="60" height="20" x="280" y="320"/>
            <rect style="fill:orange" width="20" height="20" x="380" y="320"/>

            <!-- 340 -->
            <rect style="fill:orange" width="60" height="20" x="0" y="340"/>
            <rect style="fill:orange" width="20" height="20" x="320" y="340"/>
            <rect style="fill:orange" width="60" height="20" x="380" y="340"/>

            <!-- 360 -->
            <rect style="fill:orange" width="120" height="20" x="0" y="360"/>
            <rect style="fill:orange" width="20" height="20" x="320" y="360"/>
            <rect style="fill:orange" width="120" height="20" x="380" y="360"/>

            <!-- 380 -->
            <rect style="fill:orange" width="100" height="20" x="0" y="380"/>
            <rect style="fill:orange" width="20" height="20" x="220" y="380"/>
            <rect style="fill:orange" width="20" height="20" x="580" y="380"/>

            <!-- 400 -->
            <rect style="fill:orange" width="80" height="20" x="180" y="400"/>
            <rect style="fill:orange" width="40" height="20" x="560" y="400"/>

            <!-- 420 -->
            <rect style="fill:orange" width="200" height="20" x="160" y="420"/>
            <rect style="fill:orange" width="60" height="20" x="540" y="420"/>

            <!-- 440 -->
            <rect style="fill:orange" width="100" height="20" x="140" y="440"/>
            <rect style="fill:orange" width="20" height="20" x="440" y="440"/>
            <rect style="fill:orange" width="60" height="20" x="500" y="440"/>

            <!-- 460 -->
            <rect style="fill:orange" width="60" height="20" x="120" y="460"/>
            <rect style="fill:orange" width="60" height="20" x="400" y="460"/>

            <!-- 480 -->
            <rect style="fill:orange" width="40" height="20" x="0" y="480"/>
            <rect style="fill:orange" width="60" height="20" x="380" y="480"/>

            <!-- 500 -->
            <rect style="fill:orange" width="60" height="20" x="0" y="500"/>
            <rect style="fill:orange" width="20" height="20" x="260" y="500"/>

            <!-- 520 -->
            <rect style="fill:orange" width="80" height="20" x="0" y="520"/>
            <rect style="fill:orange" width="20" height="20" x="140" y="520"/>
            <rect style="fill:orange" width="80" height="20" x="240" y="520"/>
            <rect style="fill:orange" width="20" height="20" x="500" y="520"/>

            <!-- the floor -->
            <rect style="fill:orange" width="600" height="20" x="0" y="540"/>
        </g>

        <g id="monsters"/>
        <g id="bullets"/>

        <g id="player">
          <path fill="#000000" stroke-width="0" stroke-opacity="null" d="m1.033801,74.035515c-2.021821,-2.360397 3.167009,-2.4235 2.351989,-5.039902c1.49042,-3.467201 5.36571,-5.565899 5.93641,-9.505699c-1.57189,-1.094997 -2.47563,-3.743298 0.523,-3.428898c2.199,-1.655201 1.924101,-5.0425 2.585501,-7.528301c0.6193,-4.0121 0.7598,-8.072899 1.0259,-12.118c-2.5445,-0.195499 -5.15189,-0.059299 -7.630991,-0.711201c0.07127,-2.690197 5.11589,-1.657997 5.345291,-4.1964c3.6679,-0.066399 0.2034,-5.5448 -1.290501,-6.851898c-1.91194,-2.204901 -3.18537,-5.6856 -1.73189,-8.408701c2.07909,-1.3813 6.77959,-0.540401 6.567289,-4.170501c-1.413899,-0.805999 -3.2089,-0.2941 -4.7939,-0.436599c0.0978,-1.692722 0.1952,-3.385382 0.2927,-5.078012c2.0957,-0.16126 4.1911,-0.32246 6.2869,-0.48364c-1.063799,-1.10559 -2.655699,-1.9192 -3.054199,-3.48304c1.3552,-2.227591 4.621099,-2.030932 6.960501,-2.009863c2.274899,-0.156921 6.4228,1.360523 3.3218,3.804693c-0.251301,0.60022 -2.6973,2.09271 -1.1856,1.92995c1.935499,0 3.870899,0 5.8064,0c-0.005901,1.65477 -0.0501,3.32595 0.338499,4.94541c-1.4776,1.1002 -6.2682,-0.9399 -4.903999,2.4548c1.535799,1.4195 3.887999,1.382 5.8363,2.007c1.1364,0.113601 2.040199,0.409701 1.630899,1.737901c0.213499,2.4662 -0.408701,4.946901 -2.103901,6.818901c-1.199799,1.9534 -3.894999,4.398899 -3.097198,6.66c1.509399,-0.2458 2.722,0.7453 1.5163,1.860001c1.2374,0.916 5.5944,0.7062 4.651899,2.999699c-2.207399,0.730598 -4.578899,0.426201 -6.8689,0.500801c0.609699,6.260399 1.4529,12.521198 2.8619,18.651699c0.8232,1.360302 4.092899,2.405998 1.4093,4.179401c-1.001499,3.302498 2.197201,5.775497 4.206202,7.895195c2.208897,1.654305 1.137299,4.983002 4.262199,5.513901c2.460999,2.384003 -3.378799,2.320503 -4.877899,2.325706c-9.925701,0.106995 -19.861802,0.256699 -29.783462,-0.063103c-0.8124,-0.102501 -1.8159,-0.079102 -2.394739,-0.771301l0,0l0,0z" id="svg_20" stroke="#000"/>
          <ellipse stroke="#4c4c4c" ry="5.687378" rx="5.687378" id="svg_1" cy="21.500241" cx="27.187396" fill="#ffffff"/>
          <rect rx="4" stroke-width="0" id="svg_5" height="5.812499" width="19.062498" y="35.375002" x="20.687508" stroke="#4c4c4c" fill="#000000"/>
          <rect id="svg_7" width="0.124998" y="64.499599" x="66.186792" stroke="#4c4c4c" fill="#000000"/>
          <ellipse stroke="#4c4c4c" ry="2.812454" rx="2.812454" id="svg_8" cy="21.937746" cx="29.687341" fill-opacity="null" stroke-opacity="null" stroke-width="0" fill="#000000"/>
          <ellipse ry="0.062499" id="svg_10" cy="23.937722" cx="27.187391" fill-opacity="null" stroke-opacity="null" stroke-width="0" stroke="#4c4c4c" fill="#000000"/>
        </g>
	<g id="highscoretable" transform="translate(40,40)" style="visibility:hidden">
	  <rect width="520" height="480"
	   style="fill:white;stroke:red;stroke-width:2"/>
	  <text x="260" y="40"
	   style="fill:red;font-size:30px;font-weight:bold;text-anchor:middle">
	    High Score Table
	  </text>
	  <text id="highscoretext" y="45"
	   style="font-size: 20px;font-weight:bold"/>
	</g>
      </g>
    </g>
  </g>
</svg>
